PathFileType	4	(X/Y/Z)	 s04c0102.trc
DataRate	CameraRate	NumFrames	NumMarkers	Units	OrigDataRate	OrigDataStartFrame	OrigNumFrames
200	200	5	50	mm	200	1	2000
Frame#	Time	racr			lacr			c7			jug			rlel			rdr			llel			ldr			s2			lic			ric			lasi			rasi			rpsi			lpsi			rgt			lgt			rth1			rth2			rth3			rth4			rlfc			rmfc			rsh1			rsh2			rsh3			rsh4			rlmal			rmmal			rcal			rtoe			rmt5			lth1			lth2			lth4			lth3			llfc			lmfc			lsh1			lsh2			lsh3			lsh4			llmal			lmmal			lcal			ltoe			lmt5			SBIKE			LBIKE			RBIKE			
		X1	Y1	Z1	X2	Y2	Z2	X3	Y3	Z3	X4	Y4	Z4	X5	Y5	Z5	X6	Y6	Z6	X7	Y7	Z7	X8	Y8	Z8	X9	Y9	Z9	X10	Y10	Z10	X11	Y11	Z11	X12	Y12	Z12	X13	Y13	Z13	X14	Y14	Z14	X15	Y15	Z15	X16	Y16	Z16	X17	Y17	Z17	X18	Y18	Z18	X19	Y19	Z19	X20	Y20	Z20	X21	Y21	Z21	X22	Y22	Z22	X23	Y23	Z23	X24	Y24	Z24	X25	Y25	Z25	X26	Y26	Z26	X27	Y27	Z27	X28	Y28	Z28	X29	Y29	Z29	X30	Y30	Z30	X31	Y31	Z31	X32	Y32	Z32	X33	Y33	Z33	X34	Y34	Z34	X35	Y35	Z35	X36	Y36	Z36	X37	Y37	Z37	X38	Y38	Z38	X39	Y39	Z39	X40	Y40	Z40	X41	Y41	Z41	X42	Y42	Z42	X43	Y43	Z43	X44	Y44	Z44	X45	Y45	Z45	X46	Y46	Z46	X47	Y47	Z47	X48	Y48	Z48	X49	Y49	Z49	X50	Y50	Z50	
1	0.0050	492.239252	1422.205281	-108.420075	509.399303	1393.928551	-407.060900	489.310463	1458.981860	-262.020697	489.664037	1312.804201	-254.606207	494.331743	1117.350973	-4.289083	697.708736	912.061679	-84.412984	483.188536	1114.950993	-507.657327	698.961229	917.664851	-446.508008	-53.684868	1188.786601	-273.653950	108.475558	1193.287095	-421.163690	104.459663	1168.706672	-108.262215	NaN	NaN	NaN	144.316502	1111.536397	-149.433315	-18.433418	1225.112803	-226.926422	-20.967957	1236.344799	-301.387460	46.910840	1109.464799	-98.364990	66.914513	1131.796073	-469.007714	124.542291	958.984275	-79.868590	178.813918	890.881907	-93.103995	195.490627	806.597475	-99.756532	208.077543	906.240292	-110.571853	238.087083	669.112045	-129.781572	207.372008	652.886865	-239.566991	174.926293	558.520457	-101.600129	158.461662	470.460981	-114.253960	97.916969	406.775154	-118.060034	184.564165	460.030721	-141.339348	41.187689	264.792262	-125.408635	60.525916	270.590574	-211.650032	-33.350582	236.110183	-166.316403	264.240808	194.058127	-152.908807	194.520317	176.041009	-98.688427	131.395190	1079.501759	-471.232458	217.297535	1071.275008	-471.578700	229.793430	1101.521256	-454.174170	289.993598	1019.725964	-479.804405	426.684931	936.407830	-454.667864	457.464464	917.242973	-344.632810	386.382820	829.433413	-475.424875	360.909185	748.480032	-452.821703	297.316609	686.355304	-449.895911	384.448689	739.052142	-423.125286	215.757285	565.019530	-438.272767	213.761433	571.064429	-349.826475	131.994838	549.122349	-394.583652	430.466429	507.941671	-401.739692	356.567526	478.037920	-463.151607	-177.862196	937.666079	-279.791261	-3.252302	85.633922	-484.863248	-15.042557	80.420412	-84.303622	
2	0.0100	492.257402	1422.176736	-108.436093	509.440525	1393.891416	-407.065965	489.308028	1458.938061	-262.018349	489.638905	1312.762652	-254.583235	494.329735	1117.344545	-4.289893	697.699347	912.060738	-84.410929	483.153001	1114.894272	-507.598762	698.930701	917.582323	-446.420945	-53.668715	1188.801205	-273.707235	108.469282	1193.274432	-421.203738	104.475166	1168.700275	-108.313444	NaN	NaN	NaN	144.344168	1111.526233	-149.470448	-18.423318	1225.149106	-226.961097	-20.927615	1236.352659	-301.438921	46.916504	1109.478591	-98.412078	66.915821	1131.782965	-469.056128	124.546979	959.009486	-79.907606	178.797651	890.900528	-93.143923	195.489429	806.614059	-99.789077	208.104022	906.198282	-110.650339	238.087415	669.117764	-129.806124	207.355878	652.911761	-239.580951	174.927842	558.573546	-101.622130	158.450029	470.480754	-114.260424	97.876855	406.814792	-118.053489	184.577227	460.056952	-141.354363	41.139251	264.843457	-125.413662	60.497260	270.633786	-211.671117	-33.378370	236.175378	-166.318736	264.207472	194.047284	-152.923853	194.476397	176.051437	-98.705254	131.406102	1079.490267	-471.254590	217.314936	1071.236341	-471.585423	229.804324	1101.510942	-454.189673	289.998313	1019.706885	-479.799924	426.687566	936.377178	-454.642685	457.434712	917.219412	-344.589026	386.408700	829.386367	-475.401828	360.936645	748.442244	-452.804905	297.356922	686.310697	-449.882603	384.459160	739.013499	-423.107719	215.788815	564.984117	-438.259545	213.783496	571.005805	-349.811333	132.045560	549.065303	-394.574248	430.510731	507.935088	-401.749944	356.612450	478.024415	-463.152708	-177.858980	937.667120	-279.798860	-3.266989	85.638375	-484.837618	-15.053309	80.423489	-84.308466	
3	0.0150	492.257121	1422.146340	-108.458913	509.486599	1393.858077	-407.118102	489.305514	1458.919266	-261.975945	489.677112	1312.753434	-254.624202	494.323064	1117.346214	-4.284337	697.713029	912.047082	-84.413080	483.142772	1114.837186	-507.552147	698.899484	917.528543	-446.342785	-53.669019	1188.814032	-273.745168	108.456962	1193.256878	-421.217769	104.480536	1168.730477	-108.346312	NaN	NaN	NaN	144.353251	1111.549447	-149.485589	-18.383300	1225.146803	-227.016333	-20.892758	1236.361878	-301.492315	46.913045	1109.528531	-98.436104	66.929409	1131.765740	-469.086819	124.533550	959.039706	-79.923558	178.769207	890.923470	-93.147266	195.489398	806.644426	-99.805155	208.090741	906.233233	-110.661095	238.069670	669.140609	-129.809777	207.345052	652.942245	-239.600569	174.906870	558.598332	-101.638552	158.425050	470.504840	-114.259947	97.873537	406.842752	-118.067660	184.552957	460.069752	-141.363921	41.105187	264.873033	-125.420247	60.488635	270.692631	-211.671303	-33.423386	236.215418	-166.311743	264.161916	194.077258	-152.925167	194.448648	176.076993	-98.701128	131.418045	1079.469820	-471.258850	217.324497	1071.213894	-471.590514	229.805901	1101.490959	-454.195162	290.007503	1019.674043	-479.777166	426.706241	936.349308	-454.587488	457.417682	917.213830	-344.534181	386.426725	829.367259	-475.366424	360.964116	748.399443	-452.757973	297.379638	686.273163	-449.855301	384.494190	738.982816	-423.068247	215.830614	564.941454	-438.248294	213.798912	570.969103	-349.809845	132.079911	549.017020	-394.576255	430.546539	507.925102	-401.750752	356.657374	478.018261	-463.157980	-177.852451	937.673188	-279.797787	-3.275945	85.646784	-484.833364	-15.048541	80.419671	-84.293496	
4	0.0200	492.258055	1422.108446	-108.463270	509.493284	1393.813802	-407.141905	489.283273	1458.900962	-261.955902	489.691423	1312.750274	-254.653002	494.314748	1117.333234	-4.277733	697.710292	912.061534	-84.417128	483.302484	1114.663613	-507.175031	698.906314	917.506893	-446.316072	-53.802957	1188.731920	-273.843026	108.495824	1193.255706	-421.275768	104.677082	1168.652493	-108.349764	NaN	NaN	NaN	144.299400	1111.808860	-149.514333	-18.411505	1225.185671	-227.031062	-20.510344	1237.117069	-301.912664	46.909247	1109.556614	-98.457671	66.934305	1131.760688	-469.117953	124.516132	959.075172	-80.110712	179.266128	890.519253	-92.637330	195.456134	806.677391	-99.816868	208.099838	906.261814	-110.699820	238.094572	669.154502	-129.822848	207.535407	652.847915	-239.522913	174.897134	558.638215	-101.619959	157.572037	469.564702	-114.119629	97.858981	406.882980	-118.064261	184.414607	459.745243	-141.675033	41.069799	264.924285	-125.276662	60.386393	270.764555	-211.671731	-33.380279	235.890437	-165.925116	264.145860	194.076838	-152.929458	194.394398	176.103734	-98.698663	131.437528	1079.454044	-471.266576	217.334307	1071.190833	-471.573568	229.614380	1101.662106	-454.556973	290.024791	1019.648721	-479.748353	426.629175	936.388413	-454.523232	457.428778	917.192742	-344.497427	386.456053	829.347737	-475.326630	361.019724	748.397064	-452.863522	297.394276	686.240363	-449.820373	384.565881	738.906854	-423.192379	215.908556	564.732412	-437.883671	213.670804	570.999362	-349.447888	132.108080	548.965043	-394.559060	430.587497	507.916407	-401.754528	356.771323	477.913051	-463.055536	-177.912499	937.672744	-280.101471	-3.276655	85.636460	-484.837306	-15.053523	80.428995	-84.324042	
5	0.0250	492.264367	1422.119366	-108.527680	509.433081	1393.734160	-407.211234	489.196327	1458.720587	-261.721213	489.679536	1312.779125	-254.697341	494.311892	1117.384336	-4.209285	697.693586	912.018039	-84.418080	483.255624	1114.607188	-507.164166	698.897899	917.589232	-446.364236	-53.770256	1188.784168	-273.788389	108.445471	1193.175587	-421.214421	104.723296	1168.704607	-108.651768	NaN	NaN	NaN	143.950503	1111.593920	-149.898576	-18.438368	1225.514839	-227.084022	-20.467161	1237.229130	-302.027495	46.968514	1109.694296	-98.444093	67.000185	1131.735141	-469.037080	124.538275	959.085922	-80.133494	179.233398	890.514195	-92.666194	195.416296	806.716218	-99.903323	208.037032	906.300592	-110.752374	238.088506	669.185302	-129.804555	207.477814	652.881470	-239.589473	174.891680	558.697508	-101.656055	157.516350	469.633407	-114.513842	97.789911	406.886388	-118.110601	184.336487	459.726103	-141.723374	41.119238	264.933606	-125.148799	60.520609	270.907283	-211.792462	-33.310939	236.018968	-165.928327	264.110343	194.089971	-153.013745	194.395784	176.079627	-98.959312	131.457722	1079.444325	-471.232304	217.372260	1071.195208	-471.534558	229.633343	1101.641556	-454.524532	290.051325	1019.611302	-479.687101	426.623927	936.382038	-454.482269	457.469056	917.203836	-344.448699	386.449409	829.348841	-475.306403	361.049078	748.374848	-452.820644	297.426707	686.219264	-449.790420	384.607710	738.880981	-423.136452	215.939508	564.700118	-437.872282	213.798110	570.948456	-349.412174	132.086488	548.959594	-394.703272	430.603960	507.894824	-401.719906	356.811679	477.885390	-463.060594	-177.889468	937.720472	-279.979683	-3.231297	85.623640	-484.686709	-15.016676	80.437309	-84.275563	
